<svg width="26" height="16" viewBox="0 0 26 16" fill="none" xmlns="http://www.w3.org/2000/svg">
<path d="M8.464 3.625L24.375 3.625C24.8589 3.625 25.25 3.23388 25.25 2.75C25.25 2.26612 24.8589 1.875 24.375 1.875L8.464 1.875C8.10175 0.859124 7.13925 0.124999 6 0.124999C4.86075 0.124999 3.89825 0.859124 3.536 1.875L1.625 1.875C1.14112 1.875 0.75 2.26612 0.75 2.75C0.75 3.23387 1.14112 3.625 1.625 3.625L3.536 3.625C3.89825 4.64087 4.86075 5.375 6 5.375C7.13925 5.375 8.10175 4.64087 8.464 3.625ZM5.125 2.75C5.125 2.267 5.517 1.875 6 1.875C6.483 1.875 6.875 2.267 6.875 2.75C6.875 3.233 6.483 3.625 6 3.625C5.517 3.625 5.125 3.233 5.125 2.75Z" fill="#F3734E"/>
<path d="M20 10.625C21.1392 10.625 22.1017 9.89087 22.464 8.875L24.375 8.875C24.8589 8.875 25.25 8.48388 25.25 8C25.25 7.51612 24.8589 7.125 24.375 7.125L22.464 7.125C22.1017 6.10912 21.1392 5.375 20 5.375C18.8608 5.375 17.8983 6.10912 17.536 7.125L1.625 7.125C1.14112 7.125 0.75 7.51612 0.75 8C0.75 8.48387 1.14112 8.875 1.625 8.875L17.536 8.875C17.8982 9.89087 18.8607 10.625 20 10.625ZM19.125 8C19.125 7.517 19.517 7.125 20 7.125C20.483 7.125 20.875 7.517 20.875 8C20.875 8.483 20.483 8.875 20 8.875C19.517 8.875 19.125 8.483 19.125 8Z" fill="#F3734E"/>
<path d="M6 15.875C7.13925 15.875 8.10175 15.1409 8.464 14.125L24.375 14.125C24.8589 14.125 25.25 13.7339 25.25 13.25C25.25 12.7661 24.8589 12.375 24.375 12.375L8.464 12.375C8.10175 11.3591 7.13925 10.625 6 10.625C4.86075 10.625 3.89825 11.3591 3.536 12.375L1.625 12.375C1.14112 12.375 0.75 12.7661 0.75 13.25C0.75 13.7339 1.14112 14.125 1.625 14.125L3.536 14.125C3.89825 15.1409 4.86075 15.875 6 15.875ZM5.125 13.25C5.125 12.767 5.517 12.375 6 12.375C6.483 12.375 6.875 12.767 6.875 13.25C6.875 13.733 6.483 14.125 6 14.125C5.517 14.125 5.125 13.733 5.125 13.25Z" fill="#F3734E"/>
</svg>
