<svg width="25" height="24" viewBox="0 0 25 24" fill="none" xmlns="http://www.w3.org/2000/svg">
<path d="M2.83496 10.3363C2.52171 10.0466 2.69187 9.5229 3.11557 9.47267L9.11914 8.76058C9.29182 8.7401 9.44181 8.63166 9.51465 8.47376L12.0469 2.98397C12.2256 2.59654 12.7764 2.59646 12.9551 2.9839L15.4873 8.47365C15.5601 8.63155 15.7092 8.74028 15.8818 8.76075L21.8857 9.47267C22.3094 9.5229 22.4791 10.0468 22.1659 10.3364L17.7278 14.4414C17.6001 14.5595 17.5433 14.7352 17.5771 14.9058L18.755 20.8355C18.8382 21.2539 18.3928 21.5782 18.0205 21.3698L12.7451 18.4161C12.5934 18.3312 12.4091 18.3316 12.2573 18.4165L6.98144 21.369C6.60913 21.5774 6.16294 21.2539 6.24609 20.8354L7.42414 14.9061C7.45803 14.7356 7.40134 14.5594 7.27367 14.4414L2.83496 10.3363Z" stroke="#007AFF" stroke-width="2" stroke-linecap="round" stroke-linejoin="round"/>
</svg>
