<svg width="14" height="16" viewBox="0 0 14 16" fill="none" xmlns="http://www.w3.org/2000/svg">
<path fill-rule="evenodd" clip-rule="evenodd" d="M6.63918 12.6902L3.5067 14.6092C3.18098 14.8087 2.75517 14.7064 2.55564 14.3807C2.45818 14.2216 2.42913 14.0299 2.47506 13.8491L2.95997 11.9405C3.13501 11.2515 3.60648 10.6756 4.24731 10.3679L7.66469 8.72716C7.82401 8.65067 7.89116 8.45951 7.81467 8.30019C7.75272 8.17116 7.61263 8.09896 7.4716 8.12338L3.66762 8.78194C2.89436 8.91581 2.10139 8.70228 1.4999 8.19823L0.298191 7.19116C0.00542386 6.94581 -0.0330177 6.50958 0.21233 6.21682C0.331658 6.07442 0.503254 5.98602 0.68847 5.97153L4.36005 5.68419C4.61944 5.66389 4.84549 5.49974 4.94507 5.25937L6.3615 1.8402C6.50769 1.4873 6.91228 1.31973 7.26518 1.46592C7.43462 1.53612 7.56925 1.67075 7.63945 1.8402L9.05588 5.25937C9.15545 5.49974 9.3815 5.66389 9.64089 5.68419L13.3327 5.97311C13.7135 6.00291 13.998 6.33578 13.9682 6.7166C13.9539 6.89979 13.8672 7.06975 13.7274 7.18896L10.9119 9.58928C10.7136 9.75826 10.6272 10.0243 10.6881 10.2775L11.5537 13.8733C11.6431 14.2447 11.4145 14.6182 11.0432 14.7076C10.8647 14.7506 10.6765 14.7208 10.52 14.6249L7.36177 12.6902C7.14005 12.5544 6.86089 12.5544 6.63918 12.6902Z" fill="#FFAF40"/>
</svg>
