<svg width="24" height="24" viewBox="0 0 24 24" fill="none" xmlns="http://www.w3.org/2000/svg">
<g id="wallet">
<path id="Vector" d="M17.8073 2.00017C17.6803 2.00342 17.5469 2.0197 17.4167 2.05225L3.875 5.61993C2.78125 5.90639 2 6.90898 2 8.04178V19.5C2 20.8705 3.12956 22 4.5 22H19.5C20.8704 22 22 20.8705 22 19.5V8.66678C22 7.29635 20.8704 6.1668 19.5 6.1668H8.35417L17.8333 3.66682V5.33347H19.5V3.66682C19.5 2.72933 18.7025 1.98715 17.8073 2.00017ZM4.5 7.83345H19.5C19.972 7.83345 20.3333 8.19478 20.3333 8.66678V19.5C20.3333 19.972 19.972 20.3333 19.5 20.3333H4.5C4.02799 20.3333 3.66667 19.972 3.66667 19.5V8.66678C3.66667 8.19478 4.02799 7.83345 4.5 7.83345ZM17.4167 12.8334C16.7266 12.8334 16.1667 13.3933 16.1667 14.0834C16.1667 14.7735 16.7266 15.3334 17.4167 15.3334C18.1068 15.3334 18.6667 14.7735 18.6667 14.0834C18.6667 13.3933 18.1068 12.8334 17.4167 12.8334Z" fill="#F3734E"/>
</g>
</svg>
