<svg width="16" height="16" viewBox="0 0 16 16" fill="none" xmlns="http://www.w3.org/2000/svg">
<g clip-path="url(#clip0_3040_28718)">
<path d="M7.99935 0.666992C3.95768 0.666992 0.666016 3.95866 0.666016 8.00033C0.666016 12.042 3.95768 15.3337 7.99935 15.3337C12.041 15.3337 15.3327 12.042 15.3327 8.00033C15.3327 3.95866 12.041 0.666992 7.99935 0.666992ZM7.99935 2.00033C11.3197 2.00033 13.9993 4.68001 13.9993 8.00033C13.9993 11.3206 11.3197 14.0003 7.99935 14.0003C4.67904 14.0003 1.99935 11.3206 1.99935 8.00033C1.99935 4.68001 4.67904 2.00033 7.99935 2.00033ZM11.6035 5.45866L7.33268 9.70866L5.14518 7.52116L4.18685 8.47949L6.85352 11.1462L7.33268 11.6045L7.81185 11.1462L12.541 6.39616L11.6035 5.45866Z" fill="#2FD159"/>
</g>
<defs>
<clipPath id="clip0_3040_28718">
<rect width="16" height="16" fill="white"/>
</clipPath>
</defs>
</svg>
