<svg width="24" height="25" viewBox="0 0 24 25" fill="none" xmlns="http://www.w3.org/2000/svg">
<path d="M3 11.5V16.3002C3 17.4203 3 17.9801 3.21799 18.4079C3.40973 18.7842 3.71547 19.0905 4.0918 19.2822C4.5192 19.5 5.07899 19.5 6.19691 19.5H17.8031C18.921 19.5 19.48 19.5 19.9074 19.2822C20.2837 19.0905 20.5905 18.7842 20.7822 18.4079C21 17.9805 21 17.4215 21 16.3036V11.5M3 11.5V9.5M3 11.5H21M3 9.5V8.7002C3 7.58009 3 7.01962 3.21799 6.5918C3.40973 6.21547 3.71547 5.90973 4.0918 5.71799C4.51962 5.5 5.08009 5.5 6.2002 5.5H17.8002C18.9203 5.5 19.4796 5.5 19.9074 5.71799C20.2837 5.90973 20.5905 6.21547 20.7822 6.5918C21 7.0192 21 7.57899 21 8.69691V9.5M3 9.5H21M7 15.5H11M21 11.5V9.5" stroke="#007AFF" stroke-width="2" stroke-linecap="round" stroke-linejoin="round"/>
</svg>
