<svg width="16" height="16" viewBox="0 0 16 16" fill="none" xmlns="http://www.w3.org/2000/svg">
<g clip-path="url(#clip0_3040_28727)">
<path d="M8.00071 0.364258C7.59906 0.364258 7.27344 0.689882 7.27344 1.09153V4.00062C7.27344 4.40227 7.59906 4.72789 8.00071 4.72789C8.40236 4.72789 8.72798 4.40227 8.72798 4.00062V1.09153C8.72798 0.689882 8.40236 0.364258 8.00071 0.364258Z" fill="#D5C948"/>
<path d="M8.00071 12.7275C7.59906 12.7275 7.27344 13.0532 7.27344 13.4548V14.9094C7.27344 15.311 7.59906 15.6366 8.00071 15.6366C8.40236 15.6366 8.72798 15.311 8.72798 14.9094V13.4548C8.72798 13.0532 8.40236 12.7275 8.00071 12.7275Z" fill="#D5C948"/>
<path d="M15.2731 7.63672H12.364C11.9623 7.63672 11.6367 7.96234 11.6367 8.36399C11.6367 8.76564 11.9623 9.09126 12.364 9.09126H15.2731C15.6747 9.09126 16.0004 8.76564 16.0004 8.36399C16.0004 7.96234 15.6747 7.63672 15.2731 7.63672Z" fill="#D5C948"/>
<path d="M4.36364 8.36399C4.36364 7.96234 4.03801 7.63672 3.63636 7.63672H0.727273C0.325624 7.63672 0 7.96234 0 8.36399C0 8.76564 0.325624 9.09126 0.727273 9.09126H3.63636C4.03801 9.09126 4.36364 8.76564 4.36364 8.36399Z" fill="#D5C948"/>
<path d="M13.656 2.70716C13.372 2.42313 12.9115 2.42313 12.6275 2.70716L10.5704 4.76423C10.2864 5.04825 10.2864 5.50871 10.5704 5.79273C10.7125 5.93475 10.8986 6.00578 11.0847 6.00578C11.2708 6.00578 11.4569 5.9348 11.5989 5.79273L13.656 3.73567C13.94 3.45164 13.94 2.99118 13.656 2.70716Z" fill="#D5C948"/>
<path d="M4.40081 10.9357L2.34384 12.9927C2.05987 13.2768 2.05987 13.7372 2.34384 14.0213C2.48585 14.1633 2.67199 14.2342 2.85812 14.2342C3.04425 14.2342 3.23039 14.1633 3.3724 14.0213L5.42942 11.9642C5.71339 11.6802 5.71339 11.2197 5.42942 10.9357C5.14534 10.6517 4.68488 10.6517 4.40081 10.9357Z" fill="#D5C948"/>
<path d="M3.37239 2.70714C3.08836 2.42312 2.6279 2.42316 2.34388 2.70714C2.05985 2.99116 2.05985 3.45163 2.34388 3.73565L4.4009 5.79272C4.54296 5.93473 4.72904 6.00576 4.91517 6.00576C5.10126 6.00576 5.28744 5.93473 5.4294 5.79276C5.71343 5.50874 5.71343 5.04828 5.4294 4.76426L3.37239 2.70714Z" fill="#D5C948"/>
</g>
<defs>
<clipPath id="clip0_3040_28727">
<rect width="16" height="16" fill="white"/>
</clipPath>
</defs>
</svg>
