<svg width="16" height="16" viewBox="0 0 16 16" fill="none" xmlns="http://www.w3.org/2000/svg">
<g clip-path="url(#clip0_3040_28735)">
<path d="M12.5962 3.40381C10.0619 0.869551 5.93807 0.869551 3.40381 3.40381C0.869546 5.93807 0.869546 10.0619 3.40381 12.5962C5.93807 15.1305 10.0619 15.1305 12.5962 12.5962C15.1305 10.0619 15.1305 5.93807 12.5962 3.40381ZM11.8891 4.11092C14.0408 6.26262 14.0408 9.73739 11.8891 11.8891C9.73738 14.0408 6.26262 14.0408 4.11091 11.8891C1.95921 9.73739 1.95921 6.26262 4.11091 4.11092C6.26262 1.95921 9.73738 1.95921 11.8891 4.11092ZM9.76777 5.52513L8 7.2929L6.23223 5.52513L5.52513 6.23224L7.29289 8.00001L5.52513 9.76777L6.23223 10.4749L8 8.70711L9.76777 10.4749L10.4749 9.76777L8.70711 8.00001L10.4749 6.23224L9.76777 5.52513Z" fill="#E53935"/>
</g>
<defs>
<clipPath id="clip0_3040_28735">
<rect width="16" height="16" fill="white"/>
</clipPath>
</defs>
</svg>
