<svg width="46" height="46" viewBox="0 0 46 46" fill="none" xmlns="http://www.w3.org/2000/svg">
<rect width="46" height="46" rx="23" fill="#FFECE1"/>
<path d="M8.07876 26.9179C7.4041 26.9179 6.79034 26.7633 6.23748 26.4541C5.68463 26.1355 5.24423 25.6904 4.91626 25.1188C4.59767 24.5378 4.43837 23.8772 4.43837 23.137C4.43837 22.3592 4.60704 21.6845 4.94437 21.113C5.29108 20.5414 5.74085 20.1103 6.29371 19.8198C6.84656 19.52 7.44158 19.3701 8.07876 19.3701C8.61287 19.3701 9.10013 19.4638 9.54054 19.6512C9.98095 19.8292 10.3277 20.0822 10.5807 20.4102C10.843 20.7381 10.9742 21.1083 10.9742 21.5206C10.9742 21.8298 10.8946 22.0687 10.7353 22.2374C10.576 22.3967 10.3651 22.4763 10.1028 22.4763C9.84976 22.4763 9.63893 22.392 9.47026 22.2233C9.3016 22.0547 9.21726 21.8438 9.21726 21.5908C9.35782 21.4971 9.45621 21.3941 9.51243 21.2816C9.56865 21.1692 9.59676 21.0286 9.59676 20.86C9.59676 20.5133 9.45621 20.2321 9.1751 20.0166C8.90335 19.7917 8.53791 19.6793 8.07876 19.6793C7.4041 19.6793 6.88404 19.9229 6.5186 20.4102C6.16252 20.8881 5.98448 21.5627 5.98448 22.4342V23.8397C5.98448 24.6737 6.15784 25.3437 6.50454 25.8497C6.86061 26.3557 7.38535 26.6087 8.07876 26.6087C8.71595 26.6087 9.2688 26.4306 9.73732 26.0746C10.2152 25.7091 10.5104 25.2312 10.6228 24.6409H10.9461C10.8149 25.3343 10.4869 25.8872 9.96221 26.2995C9.44684 26.7118 8.81902 26.9179 8.07876 26.9179ZM15.7654 26.9179C15.0907 26.9179 14.477 26.7633 13.9241 26.4541C13.3713 26.1355 12.9309 25.6904 12.6029 25.1188C12.2843 24.5378 12.125 23.8772 12.125 23.137C12.125 22.3967 12.2843 21.7408 12.6029 21.1692C12.9309 20.5976 13.3713 20.1572 13.9241 19.848C14.477 19.5294 15.0907 19.3701 15.7654 19.3701C16.4401 19.3701 17.0538 19.5294 17.6067 19.848C18.1595 20.1572 18.5952 20.5976 18.9138 21.1692C19.2418 21.7408 19.4058 22.3967 19.4058 23.137C19.4058 23.8772 19.2418 24.5378 18.9138 25.1188C18.5952 25.6904 18.1595 26.1355 17.6067 26.4541C17.0538 26.7633 16.4401 26.9179 15.7654 26.9179ZM15.7654 26.6087C16.4588 26.6087 16.9789 26.3557 17.3256 25.8497C17.6816 25.3437 17.8597 24.6737 17.8597 23.8397V22.4342C17.8597 21.6002 17.6816 20.9349 17.3256 20.4383C16.9789 19.9323 16.4588 19.6793 15.7654 19.6793C15.072 19.6793 14.5472 19.9323 14.1912 20.4383C13.8445 20.9349 13.6711 21.6002 13.6711 22.4342V23.8397C13.6711 24.6737 13.8445 25.3437 14.1912 25.8497C14.5472 26.3557 15.072 26.6087 15.7654 26.6087ZM20.3829 26.4962L21.3668 26.3557V19.9182L20.3829 19.7777V19.4966H22.7723V20.7897C23.1096 20.3493 23.4891 20.0026 23.9108 19.7496C24.3418 19.4966 24.8057 19.3701 25.3023 19.3701C25.8739 19.3701 26.3377 19.4966 26.6938 19.7496C27.0593 19.9932 27.2888 20.3633 27.3825 20.86C27.7199 20.4008 28.104 20.04 28.5351 19.7777C28.9661 19.5059 29.4393 19.3701 29.9547 19.3701C30.62 19.3701 31.1354 19.5387 31.5008 19.8761C31.8756 20.204 32.063 20.7053 32.063 21.38V26.3557L33.0469 26.4962V26.7773H29.8141V26.4962L30.6575 26.3557V21.4081C30.6575 20.9115 30.5685 20.532 30.3904 20.2696C30.2124 20.0073 29.9219 19.8761 29.519 19.8761C29.1348 19.8761 28.76 20.0073 28.3945 20.2696C28.0385 20.532 27.7152 20.8693 27.4247 21.2816V26.3557L28.268 26.4962V26.7773H25.1618V26.4962L26.0051 26.3557V21.4081C26.0051 20.9115 25.9161 20.532 25.738 20.2696C25.56 20.0073 25.2695 19.8761 24.8666 19.8761C24.4824 19.8761 24.1076 20.0073 23.7421 20.2696C23.3861 20.532 23.0628 20.8693 22.7723 21.2816V26.3557L23.6156 26.4962V26.7773H20.3829V26.4962ZM33.6835 26.4962L34.6674 26.3557V19.9182L33.6835 19.7777V19.4966H36.0729V21.0146C36.4196 20.5086 36.8272 20.1103 37.2958 19.8198C37.7643 19.52 38.2703 19.3701 38.8138 19.3701C39.4884 19.3701 40.0179 19.5387 40.402 19.8761C40.7956 20.2134 40.9924 20.7147 40.9924 21.38V26.3557L41.9763 26.4962V26.7773H38.7435V26.4962L39.5868 26.3557V21.4081C39.5868 20.9209 39.4884 20.546 39.2916 20.2837C39.0949 20.0119 38.7903 19.8761 38.378 19.8761C37.947 19.8761 37.53 20.0354 37.1271 20.354C36.7335 20.6632 36.3821 21.0474 36.0729 21.5065V26.3557L36.9163 26.4962V26.7773H33.6835V26.4962Z" fill="#F3734E"/>
</svg>
