<svg width="24" height="25" viewBox="0 0 24 25" fill="none" xmlns="http://www.w3.org/2000/svg">
<path fill-rule="evenodd" clip-rule="evenodd" d="M11.4664 19.4406L6.96556 22.3233C6.49755 22.623 5.88574 22.4693 5.59905 21.98C5.45902 21.741 5.41728 21.4531 5.48327 21.1815L6.18 18.3144C6.4315 17.2793 7.10893 16.4142 8.02969 15.952L12.9399 13.4873C13.1688 13.3724 13.2653 13.0852 13.1554 12.8459C13.0664 12.652 12.8651 12.5436 12.6624 12.5803L7.19677 13.5695C6.08573 13.7706 4.94637 13.4499 4.08213 12.6927L2.35549 11.1799C1.93483 10.8113 1.8796 10.156 2.23212 9.71621C2.40357 9.50229 2.65013 9.3695 2.91625 9.34773L8.19168 8.91608C8.56437 8.88559 8.88917 8.639 9.03225 8.27792L11.0674 3.14161C11.2775 2.61149 11.8588 2.35977 12.3658 2.57938C12.6093 2.68482 12.8027 2.88706 12.9036 3.14161L14.9388 8.27792C15.0818 8.639 15.4066 8.88559 15.7793 8.91608L21.0838 9.3501C21.631 9.39487 22.0397 9.89491 21.9969 10.467C21.9764 10.7422 21.8518 10.9975 21.6509 11.1766L17.6055 14.7823C17.3206 15.0362 17.1965 15.4358 17.284 15.8162L18.5277 21.2178C18.6562 21.7757 18.3277 22.3368 17.7942 22.4711C17.5377 22.5357 17.2673 22.4909 17.0424 22.3469L12.5046 19.4406C12.1861 19.2366 11.785 19.2366 11.4664 19.4406Z" fill="#FFAF40"/>
</svg>
