<svg width="20" height="20" viewBox="0 0 20 20" fill="none" xmlns="http://www.w3.org/2000/svg">
<path d="M12.3489 13.9126V14.6952C12.3489 15.9919 11.2978 17.043 10.0011 17.043C8.70444 17.043 7.65328 15.9919 7.65328 14.6952V13.9126M12.3489 13.9126H7.65328M12.3489 13.9126H15.1589C15.4583 13.9126 15.6087 13.9126 15.7299 13.8717C15.9614 13.7936 16.1426 13.6118 16.2207 13.3802C16.2618 13.2585 16.2618 13.1077 16.2618 12.8059C16.2618 12.6739 16.2616 12.6079 16.2513 12.5449C16.2318 12.426 16.1856 12.3132 16.1153 12.2153C16.0781 12.1635 16.0309 12.1163 15.9378 12.0232L15.633 11.7184C15.5346 11.62 15.4794 11.4866 15.4794 11.3475V8.43432C15.4794 5.40875 13.0267 2.95605 10.0011 2.95605C6.97555 2.95606 4.52284 5.40876 4.52284 8.43432V11.3475C4.52284 11.4866 4.46747 11.62 4.36911 11.7184L4.06428 12.0232C3.97091 12.1166 3.92418 12.1635 3.88697 12.2153C3.81666 12.3132 3.77009 12.426 3.75056 12.5449C3.74023 12.6079 3.74023 12.6739 3.74023 12.8059C3.74023 13.1077 3.74023 13.2585 3.78128 13.3802C3.85939 13.6117 4.04138 13.7936 4.27293 13.8717C4.39415 13.9126 4.54399 13.9126 4.84336 13.9126H7.65328" stroke="#007AFF" stroke-width="1.56522" stroke-linecap="round" stroke-linejoin="round"/>
</svg>
