<svg width="20" height="20" viewBox="0 0 20 20" fill="none" xmlns="http://www.w3.org/2000/svg">
<path d="M7.65251 17.043H12.3482M10.0003 2.95605C7.407 2.95605 5.30469 5.05837 5.30469 7.65171C5.30469 8.60218 5.58709 9.4867 6.07256 10.2259C6.81909 11.3627 7.19203 11.9307 7.24048 12.0156C7.67152 12.7708 7.59215 12.5044 7.6464 13.3722C7.6525 13.4698 7.65251 13.6174 7.65251 13.9126C7.65251 14.3448 8.0029 14.6952 8.43512 14.6952L11.5656 14.6952C11.9978 14.6952 12.3482 14.3448 12.3482 13.9126C12.3482 13.6174 12.3482 13.4698 12.3543 13.3722C12.4085 12.5044 12.3287 12.7708 12.7597 12.0156C12.8082 11.9307 13.1817 11.3627 13.9283 10.2259C14.4138 9.4867 14.6962 8.60218 14.6962 7.65171C14.6962 5.05837 12.5937 2.95605 10.0003 2.95605Z" stroke="#007AFF" stroke-width="1.56522" stroke-linecap="round" stroke-linejoin="round"/>
</svg>
