<svg width="20" height="20" viewBox="0 0 20 20" fill="none" xmlns="http://www.w3.org/2000/svg">
<path d="M6.8699 6.86892L6.0873 6.08632M6.0873 6.08632L5.30469 5.30371M6.0873 6.08632L6.8699 5.30371M6.0873 6.08632L5.30469 6.86893" stroke="#007AFF" stroke-width="1.56522" stroke-linecap="round" stroke-linejoin="round"/>
<path d="M14.6961 6.86892L13.9135 6.08632M13.9135 6.08632L13.1309 5.30371M13.9135 6.08632L14.6961 5.30371M13.9135 6.08632L13.1309 6.86893" stroke="#007AFF" stroke-width="1.56522" stroke-linecap="round" stroke-linejoin="round"/>
<path d="M2.95703 4.62572V10.6779C2.95703 11.2623 2.95703 11.5541 3.12763 11.7773C3.27769 11.9736 3.51697 12.1337 3.81148 12.2337C4.14597 12.3474 4.58407 12.3474 5.45896 12.3474H14.5421C15.4169 12.3474 15.8544 12.3474 16.1889 12.2337C16.4834 12.1337 16.7235 11.9736 16.8736 11.7773C17.044 11.5543 17.044 11.2627 17.044 10.6794V4.62401C17.044 4.04075 17.044 3.74868 16.8736 3.52569C16.7235 3.32934 16.4834 3.16983 16.1889 3.06979C15.8541 2.95605 15.4164 2.95605 14.5398 2.95605H5.46153C4.58493 2.95605 4.1463 2.95605 3.81148 3.06979C3.51697 3.16983 3.27769 3.32934 3.12763 3.52569C2.95703 3.7489 2.95703 4.04132 2.95703 4.62572Z" stroke="#007AFF" stroke-width="1.56522" stroke-linecap="round" stroke-linejoin="round"/>
<path d="M14.696 9.2168H8.04382M8.04382 9.2168H5.30469V10.3907H8.04382V9.2168Z" stroke="#007AFF" stroke-width="1.56522" stroke-linecap="round" stroke-linejoin="round"/>
<path d="M14.3054 17.0431C14.3054 15.7465 12.2031 14.6953 9.60971 14.6953C7.01638 14.6953 4.91406 15.7465 4.91406 17.0431" stroke="#007AFF" stroke-width="1.56522" stroke-linecap="round" stroke-linejoin="round"/>
</svg>
