<svg width="19" height="19" viewBox="0 0 19 19" fill="none" xmlns="http://www.w3.org/2000/svg">
<g clip-path="url(#clip0_3588_44735)">
<path d="M6.20064 3.33268C6.28878 3.52215 6.47681 3.63382 6.6731 3.63382C6.74678 3.63382 6.82129 3.61813 6.89209 3.58511C7.15298 3.46416 7.26568 3.15455 7.14493 2.89387L6.47103 1.44472C6.34987 1.18403 6.03903 1.07113 5.77979 1.19208C5.5189 1.31324 5.4062 1.62263 5.52695 1.88353L6.20064 3.33268Z" fill="#007AFF"/>
<path d="M6.71973 4.37188C6.71973 4.50728 6.77525 4.64247 6.87267 4.73968C6.96968 4.8369 7.10508 4.89242 7.24027 4.89242C7.37547 4.89242 7.51107 4.83669 7.60829 4.73968C7.70488 4.64247 7.76082 4.50728 7.76082 4.37188C7.76082 4.23317 7.70488 4.10128 7.60829 4.00407C7.41344 3.80984 7.06648 3.80984 6.87267 4.00407C6.77525 4.10149 6.71973 4.23317 6.71973 4.37188Z" fill="#007AFF"/>
<path d="M9.21112 3.85285C9.11412 3.94986 9.05859 4.08526 9.05859 4.22066C9.05859 4.35606 9.11412 4.49126 9.21112 4.58847C9.30813 4.68569 9.43982 4.741 9.57893 4.741C9.71433 4.741 9.84994 4.68548 9.94654 4.58847C10.044 4.49126 10.0993 4.35606 10.0993 4.22066C10.0993 4.08526 10.0438 3.94986 9.94654 3.85285C9.75252 3.65842 9.40205 3.65842 9.21112 3.85285Z" fill="#007AFF"/>
<path d="M9.25499 1.97784C9.54003 1.9411 9.74128 1.68021 9.70433 1.39516C9.68658 1.25502 9.70949 1.16276 9.77306 1.12086C9.85831 1.0641 10.0337 1.05687 10.1766 1.14191C10.3012 1.21539 10.3555 1.33118 10.3423 1.49527C10.3268 1.68722 10.2292 1.76875 9.93282 1.97103C9.66986 2.15039 9.34251 2.37351 9.17904 2.7921C9.07439 3.0598 9.20649 3.36177 9.47419 3.46621C9.53632 3.49077 9.60092 3.50212 9.66346 3.50212C9.87172 3.50212 10.0684 3.37642 10.1485 3.17105C10.1925 3.05794 10.3182 2.96816 10.519 2.8309C10.8393 2.61273 11.3233 2.2829 11.3799 1.57866C11.4247 1.01972 11.1731 0.521464 10.7072 0.245917C10.2348 -0.0331389 9.62961 -0.0310749 9.2005 0.25149C8.79471 0.518781 8.60235 0.984012 8.67232 1.52809C8.70865 1.81313 8.97139 2.01417 9.25499 1.97784Z" fill="#007AFF"/>
<path d="M12.2359 3.92302C12.3286 3.99113 12.4363 4.02395 12.5433 4.02395C12.7034 4.02395 12.8613 3.95047 12.9631 3.81156L13.9796 2.42702C14.1499 2.19523 14.0999 1.86953 13.8684 1.69945C13.637 1.52979 13.3111 1.57912 13.1412 1.81091L12.1245 3.19545C11.9542 3.42745 12.0043 3.75295 12.2359 3.92302Z" fill="#007AFF"/>
<path d="M12.9126 17.9999C12.9126 16.7032 11.1606 15.652 8.99953 15.652C6.83842 15.652 5.08649 16.7032 5.08649 17.9999M16.043 15.6523C16.043 14.6896 15.0772 13.8622 13.6952 13.4999M1.95605 15.6523C1.95605 14.6896 2.92187 13.8622 4.30388 13.4999M13.6952 10.3586C14.1755 9.92866 14.4778 9.30392 14.4778 8.60857C14.4778 7.3119 13.4266 6.26074 12.13 6.26074C11.5286 6.26074 10.9801 6.4868 10.5648 6.85857M4.30388 10.3586C3.82356 9.92866 3.52127 9.30392 3.52127 8.60857C3.52127 7.3119 4.57243 6.26074 5.8691 6.26074C6.47042 6.26074 7.01894 6.4868 7.43432 6.85857M8.99953 13.3042C7.70286 13.3042 6.65171 12.2531 6.65171 10.9564C6.65171 9.65973 7.70286 8.60857 8.99953 8.60857C10.2962 8.60857 11.3474 9.65973 11.3474 10.9564C11.3474 12.2531 10.2962 13.3042 8.99953 13.3042Z" stroke="#007AFF" stroke-width="1.56522" stroke-linecap="round" stroke-linejoin="round"/>
</g>
<defs>
<clipPath id="clip0_3588_44735">
<rect width="18.7826" height="18.7826" fill="white"/>
</clipPath>
</defs>
</svg>
