<svg width="30" height="7" viewBox="0 0 30 7" fill="none" xmlns="http://www.w3.org/2000/svg">
<path d="M3.322 6.11C2.794 6.11 2.31367 5.989 1.881 5.747C1.44833 5.49767 1.10367 5.14933 0.847 4.702C0.597667 4.24733 0.473 3.73033 0.473 3.151C0.473 2.54233 0.605 2.01433 0.869 1.567C1.14033 1.11967 1.49233 0.782333 1.925 0.555C2.35767 0.320333 2.82333 0.203 3.322 0.203C3.74 0.203 4.12133 0.276333 4.466 0.423C4.81067 0.562333 5.082 0.760333 5.28 1.017C5.48533 1.27367 5.588 1.56333 5.588 1.886C5.588 2.128 5.52567 2.315 5.401 2.447C5.27633 2.57167 5.11133 2.634 4.906 2.634C4.708 2.634 4.543 2.568 4.411 2.436C4.279 2.304 4.213 2.139 4.213 1.941C4.323 1.86767 4.4 1.787 4.444 1.699C4.488 1.611 4.51 1.501 4.51 1.369C4.51 1.09767 4.4 0.877666 4.18 0.709C3.96733 0.533 3.68133 0.445 3.322 0.445C2.794 0.445 2.387 0.635667 2.101 1.017C1.82233 1.391 1.683 1.919 1.683 2.601V3.701C1.683 4.35367 1.81867 4.878 2.09 5.274C2.36867 5.67 2.77933 5.868 3.322 5.868C3.82067 5.868 4.25333 5.72867 4.62 5.45C4.994 5.164 5.225 4.79 5.313 4.328H5.566C5.46333 4.87067 5.20667 5.30333 4.796 5.626C4.39267 5.94867 3.90133 6.11 3.322 6.11ZM9.33763 6.11C8.80963 6.11 8.32929 5.989 7.89663 5.747C7.46396 5.49767 7.11929 5.14933 6.86263 4.702C6.61329 4.24733 6.48863 3.73033 6.48863 3.151C6.48863 2.57167 6.61329 2.05833 6.86263 1.611C7.11929 1.16367 7.46396 0.819 7.89663 0.577C8.32929 0.327666 8.80963 0.203 9.33763 0.203C9.86563 0.203 10.346 0.327666 10.7786 0.577C11.2113 0.819 11.5523 1.16367 11.8016 1.611C12.0583 2.05833 12.1866 2.57167 12.1866 3.151C12.1866 3.73033 12.0583 4.24733 11.8016 4.702C11.5523 5.14933 11.2113 5.49767 10.7786 5.747C10.346 5.989 9.86563 6.11 9.33763 6.11ZM9.33763 5.868C9.88029 5.868 10.2873 5.67 10.5586 5.274C10.8373 4.878 10.9766 4.35367 10.9766 3.701V2.601C10.9766 1.94833 10.8373 1.42767 10.5586 1.039C10.2873 0.643 9.88029 0.445 9.33763 0.445C8.79496 0.445 8.38429 0.643 8.10563 1.039C7.83429 1.42767 7.69863 1.94833 7.69863 2.601V3.701C7.69863 4.35367 7.83429 4.878 8.10563 5.274C8.38429 5.67 8.79496 5.868 9.33763 5.868ZM12.9513 5.78L13.7213 5.67V0.632L12.9513 0.522V0.302H14.8213V1.314C15.0853 0.969333 15.3823 0.698 15.7123 0.5C16.0496 0.302 16.4126 0.203 16.8013 0.203C17.2486 0.203 17.6116 0.302 17.8903 0.5C18.1763 0.690666 18.356 0.980333 18.4293 1.369C18.6933 1.00967 18.994 0.727333 19.3313 0.522C19.6686 0.309333 20.039 0.203 20.4423 0.203C20.963 0.203 21.3663 0.335 21.6523 0.599C21.9456 0.855666 22.0923 1.248 22.0923 1.776V5.67L22.8623 5.78V6H20.3323V5.78L20.9923 5.67V1.798C20.9923 1.40933 20.9226 1.11233 20.7833 0.907C20.644 0.701666 20.4166 0.599 20.1013 0.599C19.8006 0.599 19.5073 0.701666 19.2213 0.907C18.9426 1.11233 18.6896 1.37633 18.4623 1.699V5.67L19.1223 5.78V6H16.6913V5.78L17.3513 5.67V1.798C17.3513 1.40933 17.2816 1.11233 17.1423 0.907C17.003 0.701666 16.7756 0.599 16.4603 0.599C16.1596 0.599 15.8663 0.701666 15.5803 0.907C15.3016 1.11233 15.0486 1.37633 14.8213 1.699V5.67L15.4813 5.78V6H12.9513V5.78ZM23.3605 5.78L24.1305 5.67V0.632L23.3605 0.522V0.302H25.2305V1.49C25.5018 1.094 25.8208 0.782333 26.1875 0.555C26.5541 0.320333 26.9501 0.203 27.3755 0.203C27.9035 0.203 28.3178 0.335 28.6185 0.599C28.9265 0.863 29.0805 1.25533 29.0805 1.776V5.67L29.8505 5.78V6H27.3205V5.78L27.9805 5.67V1.798C27.9805 1.41667 27.9035 1.12333 27.7495 0.918C27.5955 0.705333 27.3571 0.599 27.0345 0.599C26.6971 0.599 26.3708 0.723666 26.0555 0.973C25.7475 1.215 25.4725 1.51567 25.2305 1.875V5.67L25.8905 5.78V6H23.3605V5.78Z" fill="#F3734E"/>
</svg>
