<svg width="18" height="18" viewBox="0 0 18 18" fill="none" xmlns="http://www.w3.org/2000/svg">
<path fill-rule="evenodd" clip-rule="evenodd" d="M15.0266 8.30769H2.97647L2.23472 1.38461H15.7683L15.0266 8.30769ZM16.2256 9.00046C16.3199 8.83755 16.3821 8.6531 16.4033 8.4552L17.1451 1.53212C17.2327 0.713731 16.5914 0 15.7683 0H2.23472C1.41164 0 0.770295 0.713732 0.85798 1.53212L1.59974 8.4552C1.62092 8.65287 1.68301 8.83711 1.77705 8.99988C1.68282 9.16278 1.6206 9.34723 1.5994 9.54514L0.857642 16.4682C0.769958 17.2866 1.4113 18.0003 2.23438 18.0003H15.768C16.5911 18.0003 17.2324 17.2866 17.1447 16.4682L16.403 9.54514C16.3818 9.34747 16.3197 9.16323 16.2256 9.00046ZM2.97614 9.69265L15.0262 9.69265L15.768 16.6157H2.23438L2.97614 9.69265Z" fill="#F3734E"/>
<path d="M4.3063 4.76953V3.37869H5.57395V4.76953H5.17259V3.74428H4.70765V4.76953H4.3063ZM5.723 4.76953L6.22967 3.37869H6.70653L7.21121 4.76953H6.75819L6.6807 4.52117H6.24159L6.1641 4.76953H5.723ZM6.32703 4.18935H6.59328L6.46214 3.79197L6.32703 4.18935ZM7.97332 4.79934C7.82893 4.79934 7.70111 4.77019 7.58984 4.71191C7.47924 4.65363 7.39247 4.57084 7.32955 4.46355C7.2673 4.35559 7.23617 4.22776 7.23617 4.08007C7.23617 3.97211 7.25438 3.87343 7.29081 3.78402C7.32724 3.69461 7.37857 3.61745 7.4448 3.55254C7.51169 3.48763 7.5905 3.43763 7.68124 3.40253C7.77198 3.36676 7.87132 3.34888 7.97928 3.34888C8.10247 3.34888 8.2038 3.36445 8.28328 3.39557C8.36275 3.4267 8.43627 3.47075 8.50383 3.5277L8.30712 3.85753C8.27136 3.81846 8.22764 3.78932 8.17598 3.77011C8.12499 3.75024 8.06803 3.74031 8.00511 3.74031C7.94881 3.74031 7.89914 3.74825 7.85609 3.76415C7.81304 3.77938 7.77661 3.80157 7.74681 3.83071C7.71767 3.85985 7.69548 3.89495 7.68025 3.93602C7.66501 3.97708 7.6574 4.02311 7.6574 4.07411C7.6574 4.14365 7.67131 4.20326 7.69912 4.25293C7.72694 4.3026 7.76701 4.34102 7.81933 4.36817C7.87165 4.39467 7.9349 4.40791 8.00908 4.40791C8.06604 4.40791 8.12366 4.39897 8.18194 4.38109C8.24089 4.36321 8.29719 4.33506 8.35083 4.29664L8.53363 4.63243C8.47137 4.68012 8.39421 4.71986 8.30215 4.75165C8.21009 4.78344 8.10048 4.79934 7.97332 4.79934ZM8.7109 4.76953V3.37869H9.97856V4.76953H9.5772V3.74428H9.11226V4.76953H8.7109ZM10.9462 4.79934C10.8376 4.79934 10.7376 4.78112 10.6462 4.74469C10.5548 4.70761 10.4753 4.65628 10.4078 4.59071C10.3409 4.52514 10.2889 4.44831 10.2518 4.36023C10.2154 4.27214 10.1972 4.17677 10.1972 4.07411C10.1972 3.97079 10.2154 3.87508 10.2518 3.787C10.2889 3.69891 10.3409 3.62208 10.4078 3.55651C10.4753 3.49095 10.5548 3.43995 10.6462 3.40352C10.7376 3.36709 10.8376 3.34888 10.9462 3.34888C11.0548 3.34888 11.1545 3.36743 11.2453 3.40452C11.3367 3.4416 11.4158 3.49326 11.4827 3.5595C11.5502 3.62573 11.6026 3.70288 11.6397 3.79097C11.6767 3.8784 11.6953 3.97278 11.6953 4.07411C11.6953 4.17677 11.6767 4.27214 11.6397 4.36023C11.6026 4.44831 11.5502 4.52514 11.4827 4.59071C11.4158 4.65628 11.3367 4.70761 11.2453 4.74469C11.1545 4.78112 11.0548 4.79934 10.9462 4.79934ZM10.9462 4.42381C10.9946 4.42381 11.0386 4.41586 11.0784 4.39996C11.1188 4.38341 11.1535 4.35989 11.1827 4.32943C11.2118 4.29896 11.2343 4.2622 11.2502 4.21915C11.2661 4.1761 11.2741 4.12776 11.2741 4.07411C11.2741 4.00258 11.2602 3.94065 11.2323 3.88833C11.2045 3.83601 11.1658 3.79561 11.1161 3.76713C11.0671 3.73865 11.0105 3.72441 10.9462 3.72441C10.8979 3.72441 10.8535 3.73269 10.8131 3.74925C10.7734 3.76514 10.7389 3.78832 10.7098 3.81879C10.6806 3.84925 10.6581 3.88601 10.6422 3.92906C10.6263 3.97211 10.6184 4.02046 10.6184 4.07411C10.6184 4.14564 10.6323 4.20756 10.6601 4.25989C10.6879 4.31221 10.7263 4.35261 10.7753 4.38109C10.825 4.40957 10.882 4.42381 10.9462 4.42381ZM11.9144 4.76953V3.37869H12.5085C12.6151 3.37869 12.7102 3.39756 12.7936 3.43531C12.8771 3.47306 12.9427 3.52804 12.9903 3.60023C13.0387 3.67176 13.0629 3.75819 13.0629 3.85952C13.0629 3.96152 13.0407 4.04828 12.9963 4.11981C12.9519 4.19134 12.8877 4.24598 12.8036 4.28373C12.7195 4.32148 12.6178 4.34036 12.4986 4.34036H12.3158V4.76953H11.9144ZM12.3158 4.00854H12.4827C12.5383 4.00854 12.582 3.99827 12.6138 3.97774C12.6456 3.95655 12.6615 3.91913 12.6615 3.86548C12.6615 3.80985 12.645 3.77176 12.6118 3.75123C12.5787 3.7307 12.5363 3.72044 12.4847 3.72044H12.3158V4.00854ZM13.4838 4.76953V3.74428H13.1262V3.37869H14.2448V3.74428H13.8871V4.76953H13.4838Z" fill="#F3734E"/>
<path d="M8.30859 11.0771H13.5009M8.30859 12.8079H13.5009M8.30859 14.5387H11.424" stroke="#F3734E" stroke-width="1.38462" stroke-linecap="round"/>
<path d="M6.92121 14.9699C6.92121 14.3727 6.1466 13.8886 5.19107 13.8886C4.23554 13.8886 3.46094 14.3727 3.46094 14.9699M5.19107 13.2398C4.59387 13.2398 4.10974 12.7557 4.10974 12.1585C4.10974 11.5613 4.59387 11.0771 5.19107 11.0771C5.78828 11.0771 6.2724 11.5613 6.2724 12.1585C6.2724 12.7557 5.78828 13.2398 5.19107 13.2398Z" stroke="#F3734E" stroke-width="0.432533" stroke-linecap="round" stroke-linejoin="round"/>
</svg>
