<svg width="20" height="20" viewBox="0 0 20 20" fill="none" xmlns="http://www.w3.org/2000/svg">
<path d="M3.10742 3.99771V15.0832C3.10742 16.1536 3.10742 16.6881 3.26291 17.0969C3.39968 17.4566 3.61775 17.7497 3.88618 17.933C4.19104 18.1411 4.59033 18.1411 5.38771 18.1411H13.6662C14.4636 18.1411 14.8623 18.1411 15.1671 17.933C15.4356 17.7497 15.6544 17.4566 15.7911 17.0969C15.9465 16.6885 15.9465 16.1543 15.9465 15.086V3.99457C15.9465 2.92624 15.9465 2.39127 15.7911 1.98282C15.6544 1.62319 15.4356 1.33101 15.1671 1.14777C14.862 0.939453 14.4631 0.939453 13.6641 0.939453H5.39006C4.59111 0.939453 4.19134 0.939453 3.88618 1.14777C3.61775 1.33101 3.39968 1.62319 3.26291 1.98282C3.10742 2.39167 3.10742 2.92728 3.10742 3.99771Z" stroke="#F3734E" stroke-width="1.44482" stroke-linecap="round" stroke-linejoin="round"/>
<path d="M9.94085 8.18466C9.94085 7.48141 8.9922 6.91131 7.82199 6.91131C6.65177 6.91131 5.70312 7.48141 5.70312 8.18466M7.82199 6.14729C7.0906 6.14729 6.4977 5.57719 6.4977 4.87394C6.4977 4.17069 7.0906 3.60059 7.82199 3.60059C8.55337 3.60059 9.14628 4.17069 9.14628 4.87394C9.14628 5.57719 8.55337 6.14729 7.82199 6.14729Z" stroke="#F3734E" stroke-width="0.722408" stroke-linecap="round" stroke-linejoin="round"/>
<path d="M12.1383 3.62305H13.9355M12.1383 5.75623H13.9355M12.1383 7.95749H13.9355M5.27539 10.3611H13.9443M5.27539 12.2446H10.5088M12.4995 12.2446H13.614M5.27539 15.5598H9.94143" stroke="#F3734E" stroke-width="1.44482" stroke-linecap="round"/>
</svg>
