<svg width="16" height="16" viewBox="0 0 16 16" fill="none" xmlns="http://www.w3.org/2000/svg">
<g id="Interface / Trash_Empty">
<path id="Vector" d="M3.99935 4V11.8667C3.99935 12.6134 3.99935 12.9865 4.14467 13.2717C4.2725 13.5226 4.47633 13.727 4.72721 13.8548C5.01215 14 5.38534 14 6.13062 14H9.86808C10.6134 14 10.986 14 11.2709 13.8548C11.5218 13.727 11.7263 13.5226 11.8542 13.2717C11.9993 12.9868 11.9993 12.614 11.9993 11.8687V4M3.99935 4H5.33268M3.99935 4H2.66602M5.33268 4H10.666M5.33268 4C5.33268 3.37874 5.33268 3.06827 5.43418 2.82324C5.5695 2.49654 5.8289 2.23682 6.1556 2.10149C6.40063 2 6.71143 2 7.33268 2H8.66602C9.28727 2 9.5979 2 9.84293 2.10149C10.1696 2.23682 10.4291 2.49654 10.5645 2.82324C10.6659 3.06827 10.666 3.37875 10.666 4M10.666 4H11.9993M11.9993 4H13.3327" stroke="#F3734E" stroke-width="1.33333" stroke-linecap="round" stroke-linejoin="round"/>
</g>
</svg>
