<svg width="189" height="124" viewBox="0 0 189 124" fill="none" xmlns="http://www.w3.org/2000/svg">
<path d="M33.8312 0.356903C33.6808 0.469742 33.568 7.16467 33.568 15.176V29.7318L32.3644 30.7474C30.8223 32.0262 0.807961 60.348 0.20617 61.1002C-0.207561 61.5515 0.883185 62.7927 6.78826 68.585C20.5166 82.1253 29.6563 91.0769 31.6121 92.8447L33.568 94.65V109.243V123.837H50.1548H66.7041L70.1644 120.527C72.0826 118.722 75.8438 115.111 78.5895 112.516L83.5542 107.852L78.0629 102.473C75.0163 99.5396 72.4211 97.1324 72.2707 97.1324C72.1202 97.1324 69.2241 99.7653 65.839 102.962L59.7083 108.792H54.3674H48.9889L49.0265 99.6524V90.5503L54.1793 85.6984C57.0002 83.028 61.0999 79.1163 63.2814 77.01C65.4629 74.9414 72.9853 67.7199 80.0187 61.025C87.0521 54.33 94.4993 47.2214 96.568 45.228C98.6366 43.2345 101.345 40.6393 102.586 39.4733L104.843 37.3294L102.774 35.4112C101.646 34.3205 97.0569 29.8823 92.6187 25.5193C88.1429 21.1563 80.5077 13.6339 75.6181 8.8196L66.7041 0.0936203H50.3805C41.3912 0.0936203 33.9441 0.206459 33.8312 0.356903ZM64.2217 19.5766C66.516 21.7957 71.5184 26.7229 75.3548 30.4841L82.3506 37.3294L79.3041 40.2256C73.8503 45.416 68.4718 50.5312 61.0247 57.6399C57.0002 61.4763 51.9226 66.2906 49.7411 68.3969C41.8426 75.9193 39.2474 78.3265 38.9841 78.3265C38.8336 78.3265 35.9375 75.5432 32.4772 72.1581C29.0545 68.8106 25.2181 65.0871 23.9769 63.9211L21.7202 61.8148L23.2247 60.348C25.1053 58.505 45.2277 39.8118 47.4092 37.9312L48.9889 36.502V26.0082V15.5145H54.5554H60.0844L64.2217 19.5766Z" fill="#007AFF"/>
<path d="M120.377 1.48527C118.383 3.1778 113.606 7.69124 108.679 12.4679L104.993 16.0411L110.409 21.4572L115.863 26.9109L121.806 21.382C125.04 18.3354 128.125 15.665 128.651 15.4769C129.178 15.2512 131.623 15.2136 134.406 15.3641L139.258 15.6274V24.9175V34.2453L137.866 35.4488C137.076 36.1259 134.406 38.6459 131.923 41.0154C124.627 48.0489 120.339 52.1486 112.553 59.5205C104.88 66.7796 101.608 69.9014 93.5592 77.6118C90.8888 80.2071 87.6542 83.2912 86.413 84.4572L84.1562 86.6387L102.887 105.219L121.655 123.837H138.167H154.679V109.281V94.7629L156.86 92.6566C159.267 90.2871 172.62 77.499 182.399 68.1336C185.972 64.7486 188.906 61.8524 188.906 61.7396C188.906 61.5515 173.221 46.1306 157.988 31.3115L154.679 28.0769V14.0853V0.0936203H138.317H121.956L120.377 1.48527ZM160.997 55.9474L166.752 61.5891L164.194 64.0339C162.803 65.388 158.177 69.7886 153.926 73.813C149.714 77.8375 144.749 82.5766 142.944 84.3068L139.634 87.4662V97.9599V108.416H134.067H128.538L117.48 97.5838L106.423 86.7515L107.701 85.6984C108.416 85.0966 112.892 80.8841 117.631 76.2954C122.408 71.7068 130.005 64.41 134.556 60.0847C139.107 55.7217 144.411 50.6441 146.404 48.7259L149.977 45.2656L152.61 47.7856C154.039 49.1772 157.838 52.8256 160.997 55.9474Z" fill="#007AFF"/>
</svg>
