<svg width="68" height="68" viewBox="0 0 68 68" fill="none" xmlns="http://www.w3.org/2000/svg">
<path d="M26.8854 19.833H17.5672C14.3936 19.833 12.8056 19.833 11.5934 20.4506C10.5272 20.9939 9.66091 21.8602 9.11763 22.9264C8.5 24.1386 8.5 25.7266 8.5 28.9002V44.7669C8.5 47.9405 8.5 49.5251 9.11763 50.7373C9.66091 51.8035 10.5272 52.6727 11.5934 53.216C12.8044 53.833 14.3905 53.833 17.5579 53.833H50.4421C53.6095 53.833 55.1933 53.833 56.4043 53.216C57.4705 52.6727 58.3397 51.8035 58.883 50.7373C59.5 49.5263 59.5 47.9425 59.5 44.7751V28.8909C59.5 25.7235 59.5 24.1374 58.883 22.9264C58.3397 21.8602 57.4705 20.9939 56.4043 20.4506C55.1921 19.833 53.6075 19.833 50.4339 19.833H41.114M26.8854 19.833H27.0605M26.8854 19.833C26.9209 19.833 26.9583 19.833 26.9976 19.833L27.0605 19.833M26.8854 19.833C26.5848 19.8329 26.4163 19.8313 26.283 19.8164C24.6182 19.63 23.4764 18.0454 23.826 16.4071C23.8585 16.2546 23.9229 16.0617 24.0502 15.6797L24.0557 15.6635C24.2011 15.2272 24.2738 15.0091 24.3541 14.8166C25.1766 12.8457 27.0391 11.5054 29.1689 11.3483C29.377 11.333 29.6055 11.333 30.0654 11.333H37.9343C38.3942 11.333 38.6247 11.333 38.8327 11.3483C40.9625 11.5054 42.823 12.8457 43.6455 14.8166C43.7258 15.0091 43.7989 15.227 43.9443 15.6632C44.0753 16.0561 44.1408 16.2527 44.1738 16.4073C44.5234 18.0457 43.3834 19.63 41.7186 19.8164C41.5854 19.8313 41.4152 19.8329 41.114 19.833M27.0605 19.833H40.9387M40.9387 19.833H41.114M40.9387 19.833L41.0017 19.833C41.0411 19.833 41.0784 19.833 41.114 19.833M34 45.333C29.3056 45.333 25.5 41.5274 25.5 36.833C25.5 32.1386 29.3056 28.333 34 28.333C38.6944 28.333 42.5 32.1386 42.5 36.833C42.5 41.5274 38.6944 45.333 34 45.333Z" stroke="#F3734E" stroke-width="5.66667" stroke-linecap="round" stroke-linejoin="round"/>
</svg>
